# File created by Blade
# Date/Time:  Tue Jan 27 19:32:46 2015
#---------------------------------------------------------
:version 1.10
:name HOM
:units
  mass 1.0
  length 1.000000
  angle deg
:documentation
     Acclaim Skeleton File
:root
   axis xyz
   order TX TY TZ RX RY RZ
   position 0.000000 0.000000 0.000000
   orientation 0 0 0
:bonedata
   begin
      id 1
      name Spine_dum
      direction 0.000000 1.000000 0.000000
      length 6.116652
      axis 0.0 0.0 0.0 xyz
   end
   begin
      id 2
      name LeftUpLeg_dum
      direction 1.000000 0.000000 0.000000
      length 4.711765
      axis 0.0 0.0 0.0 xyz
   end
   begin
      id 3
      name RightUpLeg_dum
      direction -1.000000 0.000000 0.000000
      length 4.711765
      axis 0.0 0.0 0.0 xyz
   end
   begin
      id 4
      name Spine
      direction 0.000000 1.000000 0.000000
      length 0.000000
      axis 0.0 0.0 0.0 xyz
      dof rx ry rz
   end
   begin
      id 5
      name Spine_dum1
      direction 0.000000 1.000000 0.000000
      length 15.225563
      axis 0.0 0.0 0.0 xyz
   end
   begin
      id 6
      name Spine_dum2
      direction 0.000000 1.000000 0.000000
      length 8.977654
      axis 0.0 0.0 0.0 xyz
   end
   begin
      id 7
      name Spine_dum3
      direction 0.000000 1.000000 0.000000
      length 8.977654
      axis 0.0 0.0 0.0 xyz
   end
   begin
      id 8
      name Head
      direction 0.000000 1.000000 0.000000
      length 4.527550
      axis 0.0 0.0 0.0 xyz
      dof rx ry rz
   end
   begin
      id 9
      name LeftShoulder
      direction 1.000000 0.000000 0.000000
      length 7.110130
      axis 0.0 0.0 -90.0 xyz
      dof rx ry rz
   end
   begin
      id 10
      name LeftArm
      direction 1.000000 0.000000 0.000000
      length 10.398341
      axis 0.0 0.0 -90.0 xyz
      dof rx ry rz
   end
   begin
      id 11
      name LeftForeArm
      direction 1.000000 0.000000 0.000000
      length 8.888997
      axis 0.0 0.0 -90.0 xyz
      dof ry rz rx
   end
   begin
      id 12
      name LeftHand
      direction 0.000000 0.000000 0.000000
      length 0.000000
      axis 0.0 0.0 -90.0 xyz
      dof rx ry rz
   end
   begin
      id 13
      name LeftHand_dum1
      direction 0.000000 0.000000 0.000000
      length 0.000000
      axis 0.0 0.0 -90.0 xyz
   end
   begin
      id 14
      name LeftHand_dum2
      direction 1.000000 0.000000 0.000000
      length 3.937000
      axis 0.0 0.0 -90.0 xyz
   end
   begin
      id 15
      name LeftHandThumb1
      direction 0.000000 0.000000 1.000000
      length 3.937000
      axis 0.0 0.0 -90.0 xyz
      dof rx rz ry
   end
   begin
      id 16
      name RightShoulder
      direction -1.000000 0.000000 0.000000
      length 7.110130
      axis 0.0 0.0 90.0 xyz
      dof rx ry rz
   end
   begin
      id 17
      name RightArm
      direction -1.000000 0.000000 0.000000
      length 10.398341
      axis 0.0 0.0 90.0 xyz
      dof rx ry rz
   end
   begin
      id 18
      name RightForeArm
      direction -1.000000 0.000000 0.000000
      length 8.888997
      axis 0.0 0.0 90.0 xyz
      dof ry rz rx
   end
   begin
      id 19
      name RightHand
      direction 0.000000 0.000000 0.000000
      length 0.000000
      axis 0.0 0.0 90.0 xyz
      dof rx ry rz
   end
   begin
      id 20
      name RightHand_dum1
      direction 0.000000 0.000000 0.000000
      length 0.000000
      axis 0.0 0.0 90.0 xyz
   end
   begin
      id 21
      name RightHand_dum2
      direction -1.000000 0.000000 0.000000
      length 3.937000
      axis 0.0 0.0 90.0 xyz
   end
   begin
      id 22
      name RightHandThumb1
      direction 0.000000 0.000000 1.000000
      length 3.937000
      axis 0.0 0.0 90.0 xyz
      dof rx rz ry
   end
   begin
      id 23
      name LeftUpLeg
      direction 0.000000 -1.000000 0.000000
      length 15.510451
      axis 0.0 0.0 0.0 xyz
      dof rx ry rz
   end
   begin
      id 24
      name LeftLeg
      direction 0.000000 -1.000000 0.000000
      length 14.858061
      axis 0.0 0.0 0.0 xyz
      dof rx ry rz
   end
   begin
      id 25
      name LeftFoot
      direction 0.000000 -0.258819 0.965926
      length 5.128852
      axis 15.0 0.0 0.0 xyz
      dof rx ry rz
   end
   begin
      id 26
      name LeftToeBase
      direction 0.000000 0.000000 1.000000
      length 2.952750
      axis 0.0 0.0 0.0 xyz
      dof rx ry rz
   end
   begin
      id 27
      name RightUpLeg
      direction 0.000000 -1.000000 0.000000
      length 15.510451
      axis 0.0 0.0 0.0 xyz
      dof rx ry rz
   end
   begin
      id 28
      name RightLeg
      direction 0.000000 -1.000000 0.000000
      length 14.858061
      axis 0.0 0.0 0.0 xyz
      dof rx ry rz
   end
   begin
      id 29
      name RightFoot
      direction 0.000000 -0.258819 0.965926
      length 5.128852
      axis 15.0 0.0 0.0 xyz
      dof rx ry rz
   end
   begin
      id 30
      name RightToeBase
      direction 0.000000 0.000000 1.000000
      length 2.952750
      axis 0.0 0.0 0.0 xyz
      dof rx ry rz
   end
:hierarchy
   begin
      root Spine_dum LeftUpLeg_dum RightUpLeg_dum
      Spine_dum Spine
      LeftUpLeg_dum LeftUpLeg
      RightUpLeg_dum RightUpLeg
      Spine Spine_dum1 Spine_dum2 Spine_dum3
      Spine_dum1 Head
      Spine_dum2 LeftShoulder
      Spine_dum3 RightShoulder
      LeftShoulder LeftArm
      LeftArm LeftForeArm
      LeftForeArm LeftHand
      LeftHand LeftHand_dum1 LeftHand_dum2
      LeftHand_dum1 LeftHandThumb1
      RightShoulder RightArm
      RightArm RightForeArm
      RightForeArm RightHand
      RightHand RightHand_dum1 RightHand_dum2
      RightHand_dum1 RightHandThumb1
      LeftUpLeg LeftLeg
      LeftLeg LeftFoot
      LeftFoot LeftToeBase
      RightUpLeg RightLeg
      RightLeg RightFoot
      RightFoot RightToeBase
   end

# File created by Blade
# Date/Time:  Tue Jan 27 19:32:37 2015
# Frame Rate: 120.000 fps
#------------------------------------------------------
:FULLY-SPECIFIED
:DEGREES
261
root 4.338698 32.247929 -0.340439 -4.764675 14.206081 1.444586
Spine 3.146113 29.618203 1.794301
Head -4.553637 -27.872048 7.629531
LeftShoulder 1.800128 -13.565776 24.411555
LeftArm -0.353348 49.571074 -103.645897
LeftForeArm 2.474317 -0.000000 12.109684
LeftHand 10.251176 0.000000 -6.332112
LeftHandThumb1 -26.253704 0.000000 33.147579
RightShoulder 5.279128 17.576773 -32.415268
RightArm 50.032027 -28.844949 103.728601
RightForeArm -5.026182 -0.000000 119.073108
RightHand 28.152885 0.000000 -14.857730
RightHandThumb1 -24.326973 -0.000000 -32.862282
LeftUpLeg 9.456818 -8.024229 -4.174819
LeftLeg 3.079545 -0.000000 -0.000000
LeftFoot -17.936460 15.108817 -20.958840
LeftToeBase 16.329056 -0.000000 -0.000000
RightUpLeg 13.392245 -19.808495 -2.690936
RightLeg -1.041878 -0.000000 0.000000
RightFoot -14.455620 -14.921811 16.027312
RightToeBase 10.045431 -0.000000 -0.000000
262
root 4.335928 32.248150 -0.350808 -4.720567 14.237998 1.431269
Spine 3.150602 29.595353 1.815109
Head -4.793222 -27.859861 7.481365
LeftShoulder 1.806812 -13.597570 24.385236
LeftArm -0.360961 49.605609 -103.653826
LeftForeArm 2.462895 -0.000000 12.079919
LeftHand 10.271670 -0.000000 -6.337199
LeftHandThumb1 -26.253704 0.000000 33.147579
RightShoulder 5.335569 17.480124 -32.325578
RightArm 49.697577 -28.549751 103.956473
RightForeArm -4.899260 -0.000000 119.402852
RightHand 28.132602 -0.000000 -14.773672
RightHandThumb1 -24.326973 -0.000000 -32.862282
LeftUpLeg 9.397837 -8.049150 -4.153978
LeftLeg 3.053315 -0.000000 -0.000000
LeftFoot -17.946709 15.148468 -20.911849
LeftToeBase 16.500001 -0.000000 -0.000000
RightUpLeg 13.320265 -19.815346 -2.651716
RightLeg -1.031912 -0.000000 0.000000
RightFoot -14.448773 -14.960665 16.024125
RightToeBase 9.997487 -0.000000 -0.000000
263
root 4.336124 32.248716 -0.358438 -4.685616 14.257067 1.437256
Spine 3.156249 29.553960 1.816183
Head -5.034989 -27.800324 7.337199
LeftShoulder 1.794612 -13.583520 24.370413
LeftArm -0.342563 49.618319 -103.645451
LeftForeArm 2.501865 0.000000 12.045794
LeftHand 10.314325 -0.000000 -6.279794
LeftHandThumb1 -26.253704 0.000000 33.147579
RightShoulder 5.419605 17.334704 -32.208690
RightArm 49.392407 -28.228995 104.187708
RightForeArm -4.661417 -0.000000 119.730791
RightHand 28.150590 -0.000000 -14.523999
RightHandThumb1 -24.326973 -0.000000 -32.862282
LeftUpLeg 9.346524 -8.060893 -4.156520
LeftLeg 3.058101 -0.000000 -0.000000
LeftFoot -17.897578 15.121583 -20.925479
LeftToeBase 16.335474 -0.000000 -0.000000
RightUpLeg 13.273223 -19.815752 -2.639492
RightLeg -1.034868 -0.000000 0.000000
RightFoot -14.443999 -14.992489 16.000775
RightToeBase 9.967269 -0.000000 -0.000000
264
root 4.336797 32.249029 -0.368483 -4.655342 14.300204 1.451387
Spine 3.201924 29.480153 1.824992
Head -5.343957 -27.645430 7.130822
LeftShoulder 1.762484 -13.602395 24.337109
LeftArm -0.360328 49.655626 -103.645918
LeftForeArm 2.519443 0.000000 12.035472
LeftHand 10.295429 0.000000 -6.235353
LeftHandThumb1 -26.253704 0.000000 33.147579
RightShoulder 5.488589 17.238417 -32.110017
RightArm 49.057023 -27.889206 104.422399
RightForeArm -4.353851 -0.000000 120.102672
RightHand 28.408360 -0.000000 -14.843909
RightHandThumb1 -24.326973 -0.000000 -32.862282
LeftUpLeg 9.286302 -8.076506 -4.165416
LeftLeg 3.076326 -0.000000 -0.000000
LeftFoot -17.895332 15.118283 -20.897526
LeftToeBase 16.507647 -0.000000 -0.000000
RightUpLeg 13.238338 -19.850163 -2.645968
RightLeg -1.043935 -0.000000 0.000000
RightFoot -14.439460 -15.016212 15.990818
RightToeBase 9.976781 -0.000000 -0.000000
